<svg width="29" height="29" viewBox="0 0 29 29" fill="none" xmlns="http://www.w3.org/2000/svg">
<path d="M14.3903 7.73538C13.1078 7.73538 11.8542 8.11567 10.7879 8.82814C9.72163 9.54062 8.89055 10.5533 8.39979 11.7381C7.90903 12.9229 7.78062 14.2266 8.03081 15.4844C8.281 16.7422 8.89854 17.8975 9.80535 18.8044C10.7122 19.7112 11.8675 20.3287 13.1253 20.5789C14.3831 20.8291 15.6868 20.7007 16.8716 20.2099C18.0564 19.7192 19.0691 18.8881 19.7816 17.8218C20.494 16.7555 20.8743 15.5019 20.8743 14.2194C20.8725 12.5003 20.1888 10.8521 18.9732 9.63649C17.7576 8.42088 16.1094 7.73717 14.3903 7.73538ZM14.3903 18.5421C13.5353 18.5421 12.6996 18.2886 11.9887 17.8136C11.2778 17.3386 10.7238 16.6635 10.3966 15.8737C10.0694 15.0838 9.98384 14.2146 10.1506 13.3761C10.3174 12.5376 10.7291 11.7674 11.3337 11.1628C11.9382 10.5583 12.7084 10.1466 13.547 9.97979C14.3855 9.813 15.2546 9.8986 16.0445 10.2258C16.8344 10.553 17.5095 11.107 17.9845 11.8179C18.4594 12.5287 18.713 13.3645 18.713 14.2194C18.713 15.3659 18.2575 16.4654 17.4469 17.276C16.6362 18.0867 15.5367 18.5421 14.3903 18.5421ZM20.8743 0.170654H7.90622C5.90059 0.1728 3.97772 0.970485 2.55952 2.38868C1.14132 3.80688 0.343637 5.72975 0.341492 7.73538V20.7035C0.343637 22.7091 1.14132 24.632 2.55952 26.0502C3.97772 27.4684 5.90059 28.2661 7.90622 28.2682H20.8743C22.88 28.2661 24.8028 27.4684 26.221 26.0502C27.6392 24.632 28.4369 22.7091 28.4391 20.7035V7.73538C28.4369 5.72975 27.6392 3.80688 26.221 2.38868C24.8028 0.970485 22.88 0.1728 20.8743 0.170654ZM26.2777 20.7035C26.2777 22.1366 25.7084 23.5109 24.6951 24.5243C23.6818 25.5376 22.3074 26.1069 20.8743 26.1069H7.90622C6.47315 26.1069 5.09878 25.5376 4.08545 24.5243C3.07213 23.5109 2.50284 22.1366 2.50284 20.7035V7.73538C2.50284 6.30232 3.07213 4.92795 4.08545 3.91462C5.09878 2.90129 6.47315 2.33201 7.90622 2.33201H20.8743C22.3074 2.33201 23.6818 2.90129 24.6951 3.91462C25.7084 4.92795 26.2777 6.30232 26.2777 7.73538V20.7035ZM23.0357 7.19504C23.0357 7.51565 22.9406 7.82906 22.7625 8.09563C22.5844 8.3622 22.3312 8.56997 22.035 8.69267C21.7388 8.81536 21.4129 8.84746 21.0984 8.78491C20.784 8.72236 20.4951 8.56798 20.2684 8.34127C20.0417 8.11457 19.8873 7.82573 19.8248 7.51129C19.7622 7.19684 19.7944 6.87091 19.917 6.57471C20.0397 6.27851 20.2475 6.02534 20.5141 5.84722C20.7806 5.6691 21.0941 5.57403 21.4147 5.57403C21.8446 5.57403 22.2569 5.74482 22.5609 6.04881C22.8649 6.35281 23.0357 6.76512 23.0357 7.19504Z" fill="white"/>
</svg>
