<svg width="65" height="65" viewBox="0 0 65 65" fill="none" xmlns="http://www.w3.org/2000/svg">
<path d="M13.506 34.0816L13.8582 34.4309L22.0068 42.5134L22.0131 42.5196L22.0191 42.526C22.1344 42.6487 22.2736 42.7473 22.4285 42.8158C22.5835 42.8843 22.751 42.9212 22.9209 42.9242C23.0909 42.9271 23.2596 42.8961 23.4169 42.8331C23.5743 42.77 23.7169 42.6763 23.8365 42.5577C23.9561 42.4391 24.0501 42.2981 24.1132 42.1431C24.1763 41.9882 24.2073 41.8223 24.2043 41.6555C24.2013 41.4887 24.1645 41.324 24.0959 41.1713C24.0273 41.0186 23.9283 40.8809 23.8045 40.7665L23.7981 40.7606L23.7918 40.7543L15.6432 32.6719L15.2853 32.3169L15.6432 31.9619L22.5472 25.1139L22.8993 24.7647L23.2514 25.1139L31.3933 33.1897C31.6315 33.407 31.9457 33.5257 32.271 33.52C32.599 33.5143 32.9111 33.3825 33.1419 33.1536C33.3726 32.9248 33.504 32.617 33.5097 32.2952C33.5154 31.9762 33.397 31.6665 33.1783 31.4307L25.0364 23.3549L24.6784 22.9999L25.0365 22.6449L31.9405 15.7998L32.2926 15.4508L32.6446 15.7998L40.7865 23.8727C41.0247 24.09 41.3389 24.2088 41.6642 24.2031C41.9922 24.1974 42.3044 24.0655 42.5352 23.8366C42.7658 23.6079 42.8972 23.3 42.9029 22.9783C42.9086 22.6592 42.7903 22.3496 42.5715 22.1137L34.4326 14.0379L34.0748 13.6829L34.4326 13.328L44.2396 3.60069C44.2396 3.60063 44.2397 3.60056 44.2398 3.60049C44.3409 3.50016 44.4607 3.42076 44.5923 3.36665L44.7824 3.82909L44.5923 3.36665C44.7239 3.31251 44.8649 3.2847 45.0072 3.2847C45.1495 3.2847 45.2905 3.31252 45.4222 3.36665L45.2321 3.82909L45.4222 3.36665C45.5538 3.42076 45.6736 3.50014 45.7747 3.60046L13.506 34.0816ZM13.506 34.0816L13.1539 34.4309L3.34405 44.1611C3.34398 44.1612 3.34392 44.1612 3.34385 44.1613C3.24268 44.2616 3.16219 44.3809 3.1072 44.5125C3.05216 44.6442 3.02378 44.7855 3.02378 44.9283C3.02378 45.0711 3.05216 45.2124 3.10719 45.3441C3.16223 45.4757 3.24279 45.5951 3.34406 45.6954L18.8103 61.0331C18.8103 61.0332 18.8104 61.0332 18.8105 61.0333C18.9116 61.1336 19.0314 61.213 19.163 61.2671C19.2946 61.3213 19.4356 61.3491 19.5779 61.3491C19.7202 61.3491 19.8612 61.3213 19.9929 61.2671C20.1245 61.213 20.2444 61.1335 20.3456 61.0331L61.2411 20.4727C61.2412 20.4726 61.2412 20.4726 61.2413 20.4725C61.3424 20.3722 61.4229 20.2529 61.478 20.1213C61.533 19.9896 61.5614 19.8483 61.5614 19.7055C61.5614 19.5627 61.533 19.4214 61.478 19.2897C61.4229 19.1581 61.3424 19.0388 61.2413 18.9385C61.2412 18.9384 61.2411 18.9384 61.2411 18.9383L45.7749 3.60069L13.506 34.0816ZM47.5626 1.83855L47.9147 1.48358L47.5626 1.83857L63.0292 17.1795L63.3813 16.8245L63.0293 17.1795C63.3643 17.5118 63.6298 17.9061 63.8109 18.3397C63.992 18.7733 64.0852 19.2379 64.0852 19.707C64.0852 20.1761 63.992 20.6407 63.8109 21.0743C63.6298 21.5079 63.3643 21.9021 63.0293 22.2344L22.1304 62.7952L22.1304 62.7952C21.7954 63.1275 21.3974 63.3914 20.9592 63.5714C20.5209 63.7515 20.0511 63.8442 19.5764 63.8442C19.1018 63.8442 18.632 63.7515 18.1937 63.5714C17.7555 63.3914 17.3575 63.1275 17.0225 62.7952L16.6704 63.1502L17.0225 62.7952L1.55592 47.4543L1.20381 47.8092L1.5559 47.4542C1.22087 47.122 0.955333 46.7277 0.774241 46.2941C0.593152 45.8605 0.5 45.3959 0.5 44.9268C0.5 44.4577 0.593152 43.9931 0.774241 43.5595C0.955333 43.1259 1.22087 42.7317 1.55589 42.3994L42.4547 1.8386L42.4548 1.83855C42.7898 1.50624 43.1877 1.24242 43.626 1.06235C44.0642 0.882284 44.5341 0.789551 45.0087 0.789551C45.4833 0.789551 45.9532 0.882283 46.3914 1.06235C46.8297 1.24242 47.2276 1.50624 47.5626 1.83855Z" fill="white" stroke="white"/>
</svg>
