<svg width="46" height="46" viewBox="0 0 46 46" fill="none" xmlns="http://www.w3.org/2000/svg">
<path d="M43.7854 30.9256L32.9501 26.0703L32.9202 26.0565C32.3576 25.8159 31.744 25.7193 31.1348 25.7756C30.5256 25.8318 29.94 26.039 29.431 26.3785C29.3711 26.4181 29.3135 26.4611 29.2585 26.5073L23.6603 31.2798C20.1137 29.5571 16.452 25.9231 14.7293 22.4225L19.5088 16.7391C19.5548 16.6816 19.5985 16.6241 19.6399 16.562C19.972 16.0544 20.1736 15.4725 20.2266 14.8682C20.2795 14.2639 20.1823 13.6558 19.9435 13.0982V13.0706L15.0743 2.21676C14.7586 1.48826 14.2158 0.881398 13.5268 0.486768C12.8379 0.0921378 12.0398 -0.069096 11.2517 0.0271348C8.13511 0.437244 5.27437 1.96782 3.20379 4.333C1.13321 6.69817 -0.00561418 9.7362 2.0812e-05 12.8797C2.0812e-05 31.1418 14.8581 46 33.1203 46C36.2637 46.0056 39.3017 44.8668 41.6669 42.7962C44.0321 40.7256 45.5626 37.8649 45.9727 34.7483C46.0692 33.9604 45.9083 33.1625 45.5141 32.4736C45.1199 31.7847 44.5135 31.2417 43.7854 30.9256ZM33.1203 42.3199C25.3148 42.3114 17.8316 39.2069 12.3123 33.6877C6.79303 28.1684 3.68857 20.6851 3.68005 12.8797C3.67139 10.6337 4.48057 8.46131 5.95646 6.76829C7.43234 5.07526 9.47402 3.97735 11.7002 3.67957C11.6993 3.68875 11.6993 3.69799 11.7002 3.70717L16.5302 14.5173L11.7761 20.2075C11.7278 20.2631 11.684 20.3223 11.645 20.3846C11.2989 20.9157 11.0958 21.5273 11.0555 22.1599C11.0152 22.7926 11.1391 23.4249 11.415 23.9957C13.4988 28.2576 17.7929 32.5195 22.1009 34.6011C22.6758 34.8744 23.3118 34.994 23.9467 34.948C24.5817 34.902 25.1938 34.6922 25.7234 34.3389C25.7825 34.2991 25.8393 34.2561 25.8936 34.2101L31.4849 29.4398L42.295 34.2814C42.295 34.2814 42.3134 34.2814 42.3203 34.2814C42.0262 36.5107 40.9299 38.5565 39.2366 40.036C37.5433 41.5156 35.3689 42.3275 33.1203 42.3199Z" fill="white"/>
</svg>
