<svg width="16" height="16" viewBox="0 0 16 16" fill="none" xmlns="http://www.w3.org/2000/svg">
<path d="M3.97804 5.45807e-09C3.61297 -2.38649e-05 3.25214 0.0782484 2.91989 0.229537C2.58764 0.380826 2.2917 0.601611 2.05204 0.877C0.233037 2.7 -0.300963 4.751 0.153037 6.814C0.593037 8.809 1.93104 10.707 3.60904 12.386C5.28904 14.065 7.18604 15.404 9.17904 15.845C11.241 16.301 13.294 15.772 15.119 13.96C15.3956 13.7201 15.6174 13.4237 15.7695 13.0906C15.9215 12.7576 16.0002 12.3958 16.0003 12.0297C16.0004 11.6636 15.9219 11.3018 15.77 10.9687C15.6181 10.6356 15.3965 10.339 15.12 10.099L13.91 8.889C13.4058 8.38497 12.722 8.10182 12.009 8.10182C11.2961 8.10182 10.6123 8.38497 10.108 8.889L9.49104 9.507C9.41619 9.58187 9.32733 9.64125 9.22953 9.68177C9.13173 9.72229 9.0269 9.74314 8.92104 9.74314C8.81517 9.74314 8.71035 9.72229 8.61255 9.68177C8.51475 9.64125 8.42588 9.58187 8.35104 9.507L6.49704 7.652C6.34608 7.50071 6.26131 7.29572 6.26131 7.082C6.26131 6.86828 6.34608 6.66329 6.49704 6.512L7.11504 5.892C7.61864 5.38732 7.90148 4.70347 7.90148 3.9905C7.90148 3.27753 7.61864 2.59368 7.11504 2.089L5.90504 0.878C5.66527 0.602403 5.3692 0.381424 5.03678 0.229965C4.70436 0.0785054 4.34333 8.78099e-05 3.97804 5.45807e-09Z" fill="#0F0F0F"/>
</svg>
