<svg width="27" height="26" viewBox="0 0 27 26" fill="none" xmlns="http://www.w3.org/2000/svg">
<path d="M26.6245 0.284464C26.4751 0.145321 26.2933 0.0527822 26.0988 0.0168165C25.9042 -0.0191492 25.7043 0.00282167 25.5204 0.0803621L1.09282 10.3908C0.746627 10.5359 0.453533 10.7985 0.257665 11.1389C0.0617965 11.4793 -0.0262446 11.8791 0.00679614 12.2781C0.0398369 12.6772 0.192171 13.0538 0.440865 13.3514C0.689558 13.649 1.02115 13.8514 1.38572 13.9281L7.71501 15.2684V22.88C7.71376 23.2946 7.828 23.7 8.04291 24.0438C8.25782 24.3875 8.56351 24.6537 8.92035 24.8079C9.27665 24.9648 9.66847 25.0025 10.0449 24.916C10.4213 24.8295 10.7649 24.6229 11.0309 24.323L14.0829 20.9092L18.9247 25.48C19.2741 25.8142 19.7246 25.9991 20.1916 26C20.3962 25.9998 20.5995 25.9652 20.7942 25.8973C21.1124 25.7884 21.3985 25.5915 21.6242 25.3263C21.8498 25.061 22.0071 24.7366 22.0803 24.3854L26.9729 1.42977C27.0166 1.22275 27.0073 1.00678 26.946 0.805015C26.8846 0.603253 26.7735 0.423307 26.6245 0.284464ZM19.255 4.96451L8.4563 13.3054L2.47777 12.0405L19.255 4.96451ZM9.64356 22.88V16.7075L12.6316 19.5337L9.64356 22.88ZM20.194 23.92L10.2282 14.4949L24.5718 3.40709L20.194 23.92Z" fill="white"/>
</svg>
