<svg width="26" height="26" viewBox="0 0 26 26" fill="none" xmlns="http://www.w3.org/2000/svg">
<path d="M21.4334 3.65407C20.2781 2.49081 18.9028 1.56873 17.3879 0.941424C15.8727 0.314119 14.2479 -0.00585658 12.6079 8.11474e-05C10.4155 0.00222314 8.26207 0.579994 6.36337 1.67553C4.46467 2.77106 2.88733 4.34592 1.78928 6.24235C0.691228 8.1388 0.111044 10.2903 0.106789 12.4813C0.102549 14.6724 0.674411 16.8261 1.7651 18.7268L0 25.2L6.61914 23.4675C8.44689 24.4837 10.5006 25.0253 12.5921 25.0425C15.917 25.0427 19.1073 23.7302 21.4684 21.391C23.8297 19.052 25.1709 15.8754 25.2 12.5528C25.189 10.8948 24.8505 9.2553 24.2041 7.72828C23.5578 6.20125 22.6162 4.81673 21.4334 3.65407ZM12.6079 22.8848C10.7446 22.886 8.91537 22.3855 7.31257 21.4358L6.93434 21.1995L3.01013 22.239L4.05028 18.4118L3.79813 18.018C2.45736 15.8551 1.95696 13.2757 2.39175 10.7687C2.82653 8.26165 4.16629 6.00106 6.15722 4.41515C8.14816 2.82923 10.6519 2.02814 13.1943 2.16364C15.7367 2.29912 18.1412 3.36178 19.952 5.15031C21.9314 7.08471 23.0646 9.72333 23.104 12.4898C23.0791 15.2553 21.9622 17.8991 19.9964 19.846C18.0309 21.7927 15.3753 22.8849 12.6079 22.8848ZM18.2972 15.1043C17.982 14.9468 16.4533 14.1908 16.1696 14.0963C15.8859 14.0018 15.6653 13.9388 15.4604 14.2538C15.1522 14.6761 14.8206 15.0808 14.4676 15.4665C14.2942 15.687 14.1051 15.7028 13.7899 15.4665C11.9928 14.7569 10.4956 13.4496 9.55047 11.7653C9.21952 11.2141 9.86567 11.2456 10.4645 10.0643C10.5088 9.97911 10.5318 9.88461 10.5318 9.78869C10.5318 9.69277 10.5088 9.59827 10.4645 9.51307C10.4645 9.35555 9.75535 7.81206 9.50319 7.19781C9.25104 6.58356 8.99888 6.67806 8.794 6.66231H8.17937C8.02011 6.66475 7.86322 6.70115 7.71918 6.76905C7.57513 6.83694 7.44726 6.9348 7.34409 7.05606C6.99047 7.39969 6.71466 7.81508 6.53523 8.27422C6.35581 8.73337 6.27695 9.22561 6.30394 9.71782C6.40276 10.8961 6.84676 12.019 7.58049 12.9466C8.92355 14.9559 10.7641 16.5837 12.9231 17.6715C14.0554 18.3321 15.3714 18.6083 16.6739 18.459C17.1076 18.373 17.5185 18.1968 17.8796 17.9417C18.2408 17.6867 18.5442 17.3584 18.77 16.9785C18.9793 16.5149 19.0452 15.9994 18.9591 15.498C18.8173 15.3405 18.6124 15.2618 18.2972 15.1043Z" fill="white"/>
</svg>
