<svg width="49" height="36" viewBox="0 0 49 36" fill="none" xmlns="http://www.w3.org/2000/svg">
<path d="M49 1.8C49 2.27739 48.8279 2.73523 48.5216 3.07279C48.2153 3.41036 47.7999 3.6 47.3667 3.6H37.5667V12.6C37.5667 13.0774 37.3946 13.5352 37.0883 13.8728C36.782 14.2104 36.3665 14.4 35.9333 14.4H26.1333V23.4C26.1333 23.8774 25.9613 24.3352 25.6549 24.6728C25.3486 25.0104 24.9332 25.2 24.5 25.2H14.7V34.2C14.7 34.6774 14.5279 35.1352 14.2216 35.4728C13.9153 35.8104 13.4999 36 13.0667 36H1.63333C1.20015 36 0.784702 35.8104 0.478392 35.4728C0.172083 35.1352 0 34.6774 0 34.2C0 33.7226 0.172083 33.2648 0.478392 32.9272C0.784702 32.5896 1.20015 32.4 1.63333 32.4H11.4333V23.4C11.4333 22.9226 11.6054 22.4648 11.9117 22.1272C12.218 21.7896 12.6335 21.6 13.0667 21.6H22.8667V12.6C22.8667 12.1226 23.0387 11.6648 23.3451 11.3272C23.6514 10.9896 24.0668 10.8 24.5 10.8H34.3V1.8C34.3 1.32261 34.4721 0.864774 34.7784 0.527208C35.0847 0.189643 35.5001 0 35.9333 0H47.3667C47.7999 0 48.2153 0.189643 48.5216 0.527208C48.8279 0.864774 49 1.32261 49 1.8Z" fill="white"/>
</svg>
