<svg width="38" height="32" viewBox="0 0 38 32" fill="none" xmlns="http://www.w3.org/2000/svg">
<path d="M0.944 32L2.528 13.784H6.416L11.06 24.08L12.068 26.528H12.14C12.5 25.64 12.836 24.824 13.148 24.08L17.9 13.784H21.716L23.3 32H19.916L19.124 21.164L19.16 18.032H19.088C18.776 18.872 18.392 19.76 17.936 20.696L13.616 29.804H10.628L6.308 20.732L5.156 18.032H5.084L5.12 21.164L4.328 32H0.944ZM26.9889 16.772C26.9169 16.34 26.8809 15.908 26.8809 15.476C26.8809 14.348 27.1449 13.352 27.6729 12.488C28.2009 11.6 28.8369 10.892 29.5809 10.364C30.3249 9.812 31.0689 9.308 31.8129 8.852C32.5569 8.372 33.1929 7.856 33.7209 7.304C34.2489 6.752 34.5129 6.152 34.5129 5.504C34.5129 4.832 34.2609 4.28 33.7569 3.848C33.2769 3.392 32.6649 3.164 31.9209 3.164C30.8409 3.164 29.8209 3.74 28.8609 4.892L27.0969 3.272C27.6009 2.528 28.2969 1.916 29.1849 1.436C30.0969 0.931998 31.0449 0.679998 32.0289 0.679998C33.5169 0.679998 34.7529 1.124 35.7369 2.012C36.7209 2.876 37.2129 4.004 37.2129 5.396C37.2129 6.356 36.9609 7.22 36.4569 7.988C35.9769 8.756 35.3769 9.392 34.6569 9.896C33.9609 10.376 33.2529 10.832 32.5329 11.264C31.8129 11.696 31.1889 12.176 30.6609 12.704C30.1329 13.208 29.8449 13.772 29.7969 14.396H37.4649V16.772H26.9889Z" fill="white"/>
</svg>
