<svg width="50" height="42" viewBox="0 0 50 42" fill="none" xmlns="http://www.w3.org/2000/svg">
<path d="M42.3077 9.54545V17.1818C42.3077 17.6881 42.1051 18.1737 41.7444 18.5317C41.3838 18.8898 40.8946 19.0909 40.3846 19.0909C39.8746 19.0909 39.3854 18.8898 39.0248 18.5317C38.6641 18.1737 38.4615 17.6881 38.4615 17.1818V11.4545H32.6923C32.1823 11.4545 31.6931 11.2534 31.3325 10.8954C30.9718 10.5374 30.7692 10.0518 30.7692 9.54545C30.7692 9.03913 30.9718 8.55355 31.3325 8.19552C31.6931 7.8375 32.1823 7.63636 32.6923 7.63636H40.3846C40.8946 7.63636 41.3838 7.8375 41.7444 8.19552C42.1051 8.55355 42.3077 9.03913 42.3077 9.54545ZM17.3077 30.5455H11.5385V24.8182C11.5385 24.3119 11.3359 23.8263 10.9752 23.4682C10.6146 23.1102 10.1254 22.9091 9.61538 22.9091C9.10535 22.9091 8.61621 23.1102 8.25556 23.4682C7.89492 23.8263 7.69231 24.3119 7.69231 24.8182V32.4545C7.69231 32.9609 7.89492 33.4465 8.25556 33.8045C8.61621 34.1625 9.10535 34.3636 9.61538 34.3636H17.3077C17.8177 34.3636 18.3069 34.1625 18.6675 33.8045C19.0282 33.4465 19.2308 32.9609 19.2308 32.4545C19.2308 31.9482 19.0282 31.4626 18.6675 31.1046C18.3069 30.7466 17.8177 30.5455 17.3077 30.5455ZM50 3.81818V38.1818C50 39.1945 49.5948 40.1656 48.8735 40.8817C48.1522 41.5977 47.1739 42 46.1538 42H3.84615C2.82609 42 1.84781 41.5977 1.12651 40.8817C0.405218 40.1656 0 39.1945 0 38.1818V3.81818C0 2.80554 0.405218 1.83437 1.12651 1.11832C1.84781 0.402271 2.82609 0 3.84615 0H46.1538C47.1739 0 48.1522 0.402271 48.8735 1.11832C49.5948 1.83437 50 2.80554 50 3.81818ZM46.1538 38.1818V3.81818H3.84615V38.1818H46.1538Z" fill="white"/>
</svg>
